<?xml version="1.0" standalone="no"?>
<!DOCTYPE svg PUBLIC "-//W3C//DTD SVG 20010904//EN"
 "http://www.w3.org/TR/2001/REC-SVG-20010904/DTD/svg10.dtd">
<svg version="1.0" xmlns="http://www.w3.org/2000/svg"
 width="686.000000pt" height="461.000000pt" viewBox="0 0 686.000000 461.000000"
 preserveAspectRatio="xMidYMid meet">

<g transform="translate(0.000000,461.000000) scale(0.100000,-0.100000)"
fill="#000000" stroke="none">
<path d="M4040 4381 c0 -6 4 -13 10 -16 6 -3 7 1 4 9 -7 18 -14 21 -14 7z"/>
<path d="M3382 3408 c-32 -27 -62 -67 -107 -146 -1 -1 -28 13 -60 32 -31 19
-82 40 -111 47 -48 11 -56 10 -74 -6 -23 -21 -47 -83 -55 -145 l-6 -46 -65 4
c-46 3 -78 -1 -111 -13 l-46 -18 6 -87 6 -87 -53 -22 c-29 -12 -63 -32 -74
-44 -19 -20 -20 -27 -11 -62 36 -133 193 -269 374 -325 121 -37 310 -24 409
27 28 14 34 14 110 -13 72 -26 94 -29 201 -29 100 0 132 4 194 24 164 54 331
207 356 327 5 27 1 35 -25 57 -17 15 -53 34 -81 44 -37 13 -48 22 -43 33 13
29 16 127 5 148 -15 29 -82 45 -157 39 l-61 -4 -6 54 c-7 71 -45 147 -74 151
-35 5 -94 -15 -157 -53 -33 -19 -60 -34 -61 -33 -1 2 -13 24 -28 49 -31 55
-109 129 -136 129 -10 0 -37 -15 -59 -32z m101 -68 c20 -21 46 -58 57 -80 l21
-41 -29 -34 c-17 -18 -44 -54 -62 -80 l-33 -47 -20 33 c-12 19 -38 55 -59 81
l-39 47 21 43 c19 42 84 118 100 118 4 0 24 -18 43 -40z m-343 -71 c24 -11 59
-31 76 -44 l32 -25 -14 -52 c-7 -29 -14 -67 -14 -85 l0 -32 -57 35 c-32 19
-75 40 -97 46 l-38 12 6 50 c10 76 25 116 44 116 9 0 37 -10 62 -21z m686 -14
c7 -19 14 -57 14 -84 0 -47 -1 -50 -34 -61 -18 -6 -58 -25 -88 -43 l-54 -33
-18 84 c-16 81 -16 85 1 99 24 19 135 73 151 73 7 0 20 -16 28 -35z m-452
-208 c34 -57 34 -59 20 -99 -8 -22 -14 -50 -14 -61 0 -16 -12 -8 -52 37 -56
63 -56 62 -42 180 l6 48 24 -23 c12 -13 39 -50 58 -82z m223 15 l6 -70 -48
-61 c-27 -34 -50 -60 -52 -58 -2 2 -10 28 -18 58 -14 52 -13 56 10 101 31 62
77 120 88 109 4 -4 11 -40 14 -79z m-641 22 c16 -4 23 -16 28 -47 3 -23 8 -52
12 -64 6 -21 4 -22 -81 -19 -98 2 -102 6 -106 75 -2 28 2 45 12 52 16 10 102
12 135 3z m1098 0 c19 -7 21 -56 6 -100 -10 -29 -11 -29 -95 -31 -47 -1 -85 2
-85 6 0 40 25 121 39 124 25 7 118 8 135 1z m-886 -91 c41 -27 52 -41 52 -61
0 -15 3 -37 6 -50 7 -23 6 -23 -52 6 -33 17 -69 33 -81 37 -16 4 -27 20 -38
57 -22 77 -21 80 23 61 20 -8 61 -31 90 -50z m655 0 c-12 -47 -20 -64 -37 -69
-11 -3 -47 -19 -79 -35 l-58 -29 6 47 c5 34 14 54 33 71 27 22 143 85 148 79
2 -1 -4 -30 -13 -64z m-809 -109 c9 -3 30 -32 46 -63 35 -66 118 -155 186
-199 l46 -31 -38 6 c-149 23 -305 131 -385 268 l-23 38 76 -6 c41 -4 82 -9 92
-13z m1006 4 c0 -22 -88 -131 -137 -172 -64 -51 -149 -93 -225 -111 -71 -16
-83 -13 -40 9 54 28 141 116 189 192 28 45 55 76 67 79 12 2 30 6 41 8 46 10
105 7 105 -5z m-1202 -50 c42 -75 111 -148 190 -202 66 -46 183 -94 232 -97
18 -1 13 -4 -15 -10 -178 -38 -463 103 -536 265 -10 23 -14 45 -10 49 6 6 83
39 108 47 0 0 14 -24 31 -52z m1380 8 c3 -3 0 -25 -7 -48 -16 -52 -113 -151
-191 -195 -104 -59 -232 -88 -333 -76 l-50 6 64 17 c148 38 292 145 373 277
l38 62 50 -19 c28 -10 53 -21 56 -24z m-619 -7 c-13 -37 -58 -103 -66 -96 -2
3 6 25 18 49 45 89 70 113 48 47z m-235 -40 c16 -27 26 -52 24 -55 -8 -8 -67
73 -74 102 -6 25 -5 27 8 17 8 -7 27 -36 42 -64z m-159 22 c59 -34 71 -47 114
-124 l32 -59 -33 19 c-39 21 -159 138 -177 171 -16 31 1 29 64 -7z m265 -26
c0 -24 -4 -47 -10 -50 -6 -4 -10 15 -10 50 0 35 4 54 10 50 6 -3 10 -26 10
-50z m310 46 c0 -21 -85 -115 -142 -157 -33 -24 -63 -43 -65 -41 -4 4 57 107
78 133 13 16 108 74 122 74 4 0 7 -4 7 -9z"/>
<path d="M1791 1189 c0 -26 2 -29 8 -15 7 18 8 18 14 3 11 -29 27 -19 26 16
-1 18 -3 24 -6 14 -5 -18 -6 -18 -24 -1 -18 17 -19 16 -18 -17z"/>
<path d="M1910 1205 c-17 -20 -5 -45 20 -45 11 0 23 7 26 15 6 15 -11 45 -26
45 -4 0 -13 -7 -20 -15z m30 -20 c0 -8 -4 -15 -9 -15 -13 0 -22 16 -14 24 11
11 23 6 23 -9z"/>
<path d="M2110 1205 c-17 -20 -5 -45 20 -45 11 0 23 7 26 15 6 15 -11 45 -26
45 -4 0 -13 -7 -20 -15z m30 -20 c0 -8 -4 -15 -9 -15 -13 0 -22 16 -14 24 11
11 23 6 23 -9z"/>
<path d="M2221 1189 c0 -28 2 -30 9 -14 7 18 8 19 15 3 12 -29 25 -20 24 15
-1 18 -3 24 -6 14 -5 -18 -6 -18 -24 -1 -18 17 -19 16 -18 -17z"/>
<path d="M2337 1213 c-4 -3 -7 -17 -7 -30 0 -17 6 -23 23 -23 12 0 18 4 12 8
-14 10 -17 32 -5 32 6 0 10 5 10 10 0 11 -23 14 -33 3z"/>
<path d="M2520 1205 c-16 -19 -6 -45 17 -45 15 0 15 2 -3 14 -18 14 -18 15 5
24 19 7 21 10 8 15 -8 3 -21 -1 -27 -8z"/>
<path d="M2632 1195 c-7 -14 -12 -27 -12 -28 0 -1 11 -2 25 -2 28 0 32 12 12
39 -12 17 -14 16 -25 -9z"/>
<path d="M2740 1189 c0 -23 3 -30 9 -20 6 9 11 10 15 2 12 -19 26 -12 26 14 0
25 -20 37 -20 13 0 -8 -7 -5 -15 6 -14 19 -15 18 -15 -15z"/>
<path d="M2935 1210 c-4 -6 -1 -18 7 -27 9 -12 9 -15 1 -9 -7 4 -13 2 -13 -3
0 -13 27 -14 35 -2 3 5 1 12 -5 16 -6 4 -8 10 -5 15 3 5 1 11 -4 14 -5 4 -13
2 -16 -4z"/>
<path d="M3036 1193 c8 -34 14 -42 14 -20 0 8 3 22 6 31 4 11 1 16 -10 16 -13
0 -15 -6 -10 -27z"/>
<path d="M3143 1213 c-7 -2 -13 -16 -13 -29 0 -19 5 -24 24 -24 28 0 37 17 24
43 -9 18 -14 19 -35 10z m27 -29 c0 -9 -5 -14 -12 -12 -18 6 -21 28 -4 28 9 0
16 -7 16 -16z"/>
<path d="M3250 1190 c0 -29 1 -29 20 -13 14 13 17 20 8 30 -17 21 -28 15 -28
-17z"/>
<path d="M3430 1214 c1 -15 29 -60 30 -47 0 6 3 20 7 30 3 10 3 15 -2 11 -4
-4 -14 -3 -22 3 -7 6 -13 8 -13 3z"/>
<path d="M3550 1205 c-17 -20 -5 -45 20 -45 11 0 23 7 26 15 6 15 -11 45 -26
45 -4 0 -13 -7 -20 -15z m30 -20 c0 -8 -4 -15 -9 -15 -13 0 -22 16 -14 24 11
11 23 6 23 -9z"/>
<path d="M3661 1197 c-1 -31 25 -49 40 -26 12 19 11 39 -1 39 -5 0 -10 -9 -10
-20 0 -30 -18 -24 -23 8 l-4 27 -2 -28z"/>
<path d="M3863 1213 c-7 -2 -13 -16 -13 -29 0 -19 5 -24 24 -24 28 0 37 17 24
43 -9 18 -14 19 -35 10z m27 -29 c0 -17 -22 -14 -28 4 -2 7 3 12 12 12 9 0 16
-7 16 -16z"/>
<path d="M3970 1190 c0 -26 2 -29 14 -18 10 9 11 15 2 20 -8 6 -8 8 2 8 6 0
12 5 12 10 0 6 -7 10 -15 10 -10 0 -15 -10 -15 -30z"/>
<path d="M4147 1213 c-4 -3 -7 -17 -7 -30 0 -16 6 -23 19 -23 26 0 31 10 20
38 -8 22 -20 28 -32 15z"/>
<path d="M4250 1190 c0 -25 4 -30 23 -29 21 0 21 1 2 9 -13 6 -15 9 -5 9 13 1
13 2 0 11 -10 6 -11 10 -2 10 6 0 12 5 12 10 0 6 -7 10 -15 10 -10 0 -15 -10
-15 -30z"/>
<path d="M4347 1213 c-11 -10 -8 -53 3 -53 6 0 10 14 10 30 0 31 -2 35 -13 23z"/>
<path d="M4420 1189 c0 -27 3 -31 11 -19 8 11 12 12 16 3 9 -25 23 -13 22 20
-1 18 -3 24 -6 14 -5 -18 -6 -18 -24 -1 -18 17 -19 16 -19 -17z"/>
<path d="M4540 1205 c-17 -21 -5 -47 22 -43 25 4 37 28 13 28 -9 0 -13 -4 -10
-10 3 -5 1 -10 -4 -10 -6 0 -11 7 -11 15 0 8 7 15 16 15 8 0 12 5 9 10 -9 14
-21 12 -35 -5z"/>
<path d="M4730 1190 c0 -23 4 -30 20 -30 25 0 28 45 4 54 -23 9 -24 8 -24 -24z"/>
<path d="M4837 1213 c-4 -3 -7 -17 -7 -30 0 -17 6 -23 23 -23 12 0 18 4 12 8
-14 10 -17 32 -5 32 6 0 10 5 10 10 0 11 -23 14 -33 3z"/>
<path d="M4942 1195 c-7 -14 -12 -27 -12 -28 0 -1 11 -2 25 -2 28 0 32 12 12
39 -12 17 -14 16 -25 -9z"/>
<path d="M5051 1192 c-1 -27 2 -33 17 -30 10 2 18 14 20 31 2 25 2 25 -4 2 -7
-33 -22 -32 -27 3 -4 25 -4 24 -6 -6z"/>
</g>
</svg>
